PathFileType	4	(X/Y/Z)	pose_F01_0-78.trc
DataRate	CameraRate	NumFrames	NumMarkers	Units	OrigDataRate	OrigDataStartFrame	OrigNumFrames
30	30	9	21	m	30	48	78
Frame#	Time	CHip			RHip			RKnee			RAnkle			RBigToe			RSmallToe			RHeel			LHip			LKnee			LAnkle			LBigToe			LSmallToe			LHeel			Neck			Nose			RShoulder			RElbow			RWrist			LShoulder			LElbow			LWrist			
		X1	Y1	Z1	X2	Y2	Z2	X3	Y3	Z3	X4	Y4	Z4	X5	Y5	Z5	X6	Y6	Z6	X7	Y7	Z7	X8	Y8	Z8	X9	Y9	Z9	X10	Y10	Z10	X11	Y11	Z11	X12	Y12	Z12	X13	Y13	Z13	X14	Y14	Z14	X15	Y15	Z15	X16	Y16	Z16	X17	Y17	Z17	X18	Y18	Z18	X19	Y19	Z19	X20	Y20	Z20	X21	Y21	Z21	
48	1.6	-0.3289376066590686	1.8264468658245545	-0.3963091283982346	-0.33203359096440394	1.8259106040348911	-0.3374661025251614	-0.33094208483237036	1.7093914355009001	-0.31904280602304724	-0.3229619739473308	1.5839840176817601	-0.30793023379906936	-0.29859771297770965	1.5559056849749742	-0.3416908538826645	-0.3049491471672149	1.5549120748964582	-0.30542328510106675	-0.33071144976206657	1.5771179358298393	-0.3038084177059394	-0.3229384522145737	1.824836360772904	-0.4482618327714656	-0.32472038525596575	1.7171771030526497	-0.43379039925145113	-0.3151251484855658	1.600446726064462	-0.43673613674829775	-0.28451173881314523	1.5721440914972789	-0.47564779205721225	-0.2902749818730297	1.5770510601954575	-0.4926543051671856	-0.3197866104858408	1.5889192316698784	-0.4210427514481223	-0.2849266594367343	1.9191496678994693	-0.4793359141101265	-0.2589675907205409	1.903074310162337	-0.4960786958362407	-0.2878335320843846	1.9163683374463767	-0.391027919578222	-0.33232644551682133	1.8394606756227876	-0.35396553659539143	-0.3332523882455265	1.768780470643347	-0.35678367868978716	-0.27946062060153676	1.9198711010255416	-0.5636400831913587	-0.29460577861967796	1.8529834327078634	-0.497750236035012	-0.3070046708970858	1.7855267965416561	-0.44910797470634684
49	1.6333333333333333	-0.33010839139935216	1.823139497957552	-0.3992478132157392	-0.33360349814807105	1.8247800227974809	-0.3491882572026307	-0.3305895131902121	1.7114369999449282	-0.3243389083076094	-0.3232330226617839	1.5857701886660132	-0.3077007841797282	-0.3006955459913005	1.5574471543452004	-0.339374814355552	-0.3038586582864127	1.5580789784536366	-0.3024200879504501	-0.3308449504973471	1.578321903101461	-0.30358984794022326	-0.32321537417231494	1.8205727034101695	-0.4476993616770811	-0.3261583998153375	1.7199797604070914	-0.4370194748171723	-0.31531345995689747	1.6020926540981113	-0.4365663419854627	-0.28565300849487885	1.5727619188333144	-0.47897402970144	-0.29102847028682505	1.5781509999201924	-0.49636213653300243	-0.316925056249796	1.5905537731118222	-0.4196665877626959	-0.2859040870468344	1.917707612794548	-0.48229798051545497	-0.2510669824023218	1.8987798697347265	-0.5042974903271179	-0.28701446338975684	1.9164638585912457	-0.396500026752325	-0.30712529304543906	1.840426947489392	-0.38162450732319875	-0.3175451330342169	1.7676059512677718	-0.3740233756140304	-0.28054846281188917	1.91721249854111	-0.5662767233455263	-0.29640628631530214	1.852123491114876	-0.49806537574054505	-0.31052678899939123	1.7826022817048772	-0.44736323314199083
50	1.6666666666666667	-0.3299597865819154	1.8212957168589088	-0.39909831985463345	-0.33344042149334285	1.8234152776884187	-0.34904956690456035	-0.3296501235393826	1.7103562931203873	-0.32073660656998354	-0.3230065364907543	1.584043877685209	-0.3079182872742805	-0.29863540788377385	1.556121254482416	-0.34170854231441045	-0.30188113094986835	1.5549798063348539	-0.3041834034494539	-0.33186765743627367	1.579530946214255	-0.3073676046989604	-0.3232441080052092	1.8175592469843767	-0.4473663505127757	-0.32539422639403437	1.717043664102784	-0.4331597295752086	-0.3156629570482253	1.6020666787301536	-0.43588115308779557	-0.28446150136012627	1.572172923065375	-0.47568837416852006	-0.29091143795210533	1.5776088231286054	-0.4963249528396183	-0.31692816499182497	1.5907675104367536	-0.4195666982518248	-0.28499446622792907	1.9178189090033972	-0.4875158703781152	-0.25100741474602883	1.89871221091094	-0.5131701907600601	-0.2879624106824802	1.9149859815820949	-0.39940540859851825	-0.30505372968755917	1.837366848597289	-0.38337598510854304	-0.31149534427578723	1.767359517142891	-0.3809265392348259	-0.27824256549851195	1.916577323110121	-0.5684522440713802	-0.29833127751766686	1.8524608957007012	-0.5048031936852238	-0.30542336020656186	1.7880284097723909	-0.45328489531904387
51	1.7	-0.3282369349167509	1.8190058222587615	-0.40066233952568386	-0.33349696474849044	1.8206254722278166	-0.3487305104845216	-0.3328468000814681	1.7070321988867185	-0.3214058132098679	-0.3228267892303447	1.58263406149463	-0.30813054084610103	-0.30059337657898444	1.5565595717331628	-0.3396700499956128	-0.30328285348687334	1.5558756070757511	-0.3075092256515501	-0.33199727912285265	1.5777086155282494	-0.30710042278737515	-0.3231312180251501	1.8165287215567931	-0.447162615128456	-0.32642946158897457	1.7133187747106946	-0.43598133237297854	-0.3153061633439055	1.6017276962687468	-0.43639961212575096	-0.28666673787822095	1.5721265698920865	-0.48219234655042514	-0.2912626555828928	1.5767219964339738	-0.49592562055814565	-0.32055574954322685	1.5913988996389152	-0.4157991047557626	-0.2850308302848879	1.917834664005178	-0.48761944521898065	-0.24004050531069798	1.9045758048035337	-0.5334416157206252	-0.2882027726497099	1.9152120558962642	-0.4080029384448523	-0.3090149854299106	1.8360208377359184	-0.3787824535445402	-0.3122750416454407	1.7638598261912268	-0.3750149483549875	-0.28117855532366043	1.9175211694127308	-0.5693654151278791	-0.29966401164053863	1.8561904299665137	-0.5084723809927486	-0.30729960372623777	1.7999635613025085	-0.4530833522608861
52	1.7333333333333334	-0.32805954643141033	1.8256692609927307	-0.4017262416714479	-0.3324898600124067	1.827790943880369	-0.3464996637596466	-0.32935049024606267	1.714057875981736	-0.32143555847628164	-0.32266682602222957	1.5847476077337215	-0.30840815402064276	-0.30041449341295146	1.5577076074731815	-0.3401301912475125	-0.3038317452346825	1.5573735412492153	-0.30265494045440366	-0.33058012166318385	1.5793621377778362	-0.3041480121894622	-0.3208653199512641	1.8237733373318528	-0.4505281840851027	-0.32598754458458307	1.7187351634659067	-0.43702907978372546	-0.3152277358121256	1.6017040021806608	-0.43638893076031554	-0.2855197492933259	1.5715617539250797	-0.479236039240325	-0.29099482577777025	1.577917395475004	-0.4963512235665594	-0.31762227289757256	1.58987553381536	-0.41422052213213123	-0.283668884144427	1.922700911441691	-0.4936322179953911	-0.23967239388203865	1.9145743626255027	-0.5439090222991436	-0.2837162388347861	1.9254867156988769	-0.413775027094286	-0.30392421879852	1.8509684776401882	-0.3908923144241113	-0.31729993085283204	1.770914347579718	-0.37969413429984966	-0.27677215804920413	1.921492243089722	-0.5743186165187498	-0.29826286433272564	1.8554920002047224	-0.5137193695000375	-0.30179954901522305	1.7934846361115844	-0.4489708044342026
53	1.7666666666666666	-0.3284129999404032	1.823154258446854	-0.4012974416726837	-0.33081856331966286	1.8248621266176608	-0.348120419058131	-0.3297941001972755	1.709689993290521	-0.32042466852431195	-0.3232908943636456	1.5861435845667333	-0.30777963913503853	-0.3003899094137936	1.557784781410597	-0.33980123742711593	-0.3057210941179471	1.5578359059942892	-0.30035337641893634	-0.3308075341276493	1.5805262889520548	-0.3041117844544704	-0.3211462116764067	1.8202626504247859	-0.4498018032763748	-0.3251963175857928	1.7155452829368245	-0.43315501784357086	-0.3150986416659693	1.600428524865366	-0.43667032739917094	-0.2856153781477873	1.572215042263781	-0.4789962441230613	-0.29097741352241857	1.5775266051423098	-0.4963604284977194	-0.31832356343125473	1.5895041212216772	-0.4181936069521739	-0.28423671124361827	1.931644666400497	-0.48973223079999817	-0.2390090265270842	1.9336774813850184	-0.5552857372835955	-0.28582313461416814	1.932176086210906	-0.4130916437357257	-0.31300480338398323	1.8511018436692785	-0.3717929204133358	-0.32223441979052925	1.7684309612000637	-0.364377163277463	-0.27457574365575194	1.9268537518670474	-0.5771896058444266	-0.2985007664851165	1.8555949725846068	-0.5135461294262174	-0.3065428170912225	1.7868659125703632	-0.4476620724636615
54	1.8	-0.32279466054379186	1.8218098114506216	-0.40751975765466036	-0.33029062998345915	1.8246713430745645	-0.35351920481744253	-0.32989464458483314	1.7081349726305566	-0.3202402254437444	-0.3213549519945494	1.5857626841401875	-0.30987295900577533	-0.3002658349114269	1.554900634384434	-0.33962631086406303	-0.3029778188351164	1.5543503717497424	-0.30744396597695295	-0.3306079326244026	1.5794511761341707	-0.30412180412200907	-0.3111542191920637	1.8232316877135124	-0.4610370529914912	-0.3237986747500104	1.7117000205439452	-0.4343067139022973	-0.3152908886264533	1.6018996342370913	-0.4364667296637191	-0.28565166409341836	1.5722750352039294	-0.47891409902726234	-0.29104423421350967	1.5777707378970023	-0.4962474306977094	-0.3185468640318669	1.5910659606219477	-0.41803116100363574	-0.285294111766238	1.9413989139276915	-0.49467992363006963	-0.24047521039253922	1.9586042008241196	-0.5656523139408078	-0.287637190894328	1.9413191138363668	-0.4125895724441184	-0.29732407661277444	1.8528646838092948	-0.3802398273677444	-0.3071609080117539	1.770794082818475	-0.376540017493405	-0.27402755322545636	1.9411279124435734	-0.5792754450974806	-0.2975159248701647	1.8681605280414066	-0.5210853009569129	-0.31040876923497585	1.7977025888442153	-0.4676546506060778
55	1.8333333333333333	-0.3165067134945939	1.827293594963723	-0.41474188119233485	-0.32700451105030315	1.825738384904165	-0.3527302593572611	-0.3243756552245597	1.708870199254611	-0.32642153430664983	-0.3196739150329929	1.5842066098044003	-0.31155842376475884	-0.2954018414846534	1.5553356762077777	-0.3404881806363193	-0.2999850171294139	1.5549257893738442	-0.30625440764863404	-0.3308373095343341	1.5782988091056458	-0.3035376697505501	-0.3090239903583944	1.8262659055463288	-0.4636191994133754	-0.3177540707760771	1.7114098038948118	-0.44060876675327754	-0.3154759318624782	1.600421526010238	-0.43595501587336927	-0.28565045090489866	1.5702098381369867	-0.47850109709935895	-0.2913444744508	1.5775482896915005	-0.49555744687952974	-0.3184845475169429	1.58814200727826	-0.4174842874215401	-0.2848434198242277	1.9542313786843455	-0.49637729757801313	-0.2410818140602382	1.9813258825641393	-0.563692155254247	-0.2911574282280062	1.9542309574240486	-0.41070647678584943	-0.29946945273662495	1.869086972940749	-0.38376029269506623	-0.2867208782368033	1.7870210529567443	-0.3872662286876432	-0.2775925068092124	1.9534433661701989	-0.5765981002825666	-0.28861865730245856	1.878403399829113	-0.5397196277892247	-0.2976703286883558	1.81330771622298	-0.5007202533020919
56	1.8666666666666667	-0.31446970649567935	1.8276795013771978	-0.4169733771994899	-0.3174642276039634	1.8275250393558211	-0.36341410062748564	-0.3203485462025761	1.7073434023795455	-0.3305862237193945	-0.32014490299966275	1.5875994147800438	-0.3113511317562705	-0.2975969183684706	1.5570071463572512	-0.3381759804942885	-0.30316456749884607	1.558077535369263	-0.3077800125906501	-0.3323153621085741	1.580296126674683	-0.30675140399302314	-0.3068447669816713	1.8274874987951055	-0.46604451788494106	-0.31378847680436156	1.7109353057016459	-0.4448922562899336	-0.3152435153597288	1.6019161889363385	-0.43642453678301046	-0.2854690064943176	1.5714439529854969	-0.4792212581697672	-0.29097708949002665	1.5780274223800477	-0.4963171708761845	-0.3184547108031606	1.5910270772427593	-0.4179401940326412	-0.2875118778204026	1.9642016035434562	-0.4906609400453514	-0.2548495502142006	1.9998615514683329	-0.5601183177440778	-0.29532669923508115	1.9638520340358907	-0.4024774295270879	-0.2973438754096631	1.877240938147553	-0.38724920419278913	-0.27775498033196533	1.7986389279990542	-0.3935918987044246	-0.28569304647600363	1.9642118290950599	-0.5697225927325364	-0.28828504959905377	1.889541594724707	-0.5499235510419662	-0.29409475013104175	1.8217182601542528	-0.5099733496238291
